# xmcd
#
# Track frame offsets:
#	182
#	20415
#	38382
#	60020
#	85112
#	113105
#	126745
#	149225
#	164010
#	180865
#	197592
#	219092
#	250010
#	285612
#	303357
#
# Disc length: 4448 seconds
#
# Revision: 2
# Processed by: cddbd v1.5.2PL0 Copyright (c) Steve Scherf et al.
# Submitted via: EasyCDDAExtractor 5.1.0
#
DISCID=c7115e0f
DTITLE=Joe Cocker - Live
DYEAR=1991
DGENRE=Blues
TTITLE0=HONKY TONK WOMEN
TTITLE1=CRY ME A RIVER
TTITLE2=THE LETTER
TTITLE3=DELTA LADY
TTITLE4=FEELING ALRIGHT
TTITLE5=SHE CAME IN THROUGH THE BATHROOM WINDOW
TTITLE6=SPACE CAPTAIN
TTITLE7=DEAR LANDLORD
TTITLE8=HITCHCOCK RAILWAY
TTITLE9=HIGH TIME WE WENT
TTITLE10=MIDNIGHT RIDER
TTITLE11=LOVE THE ONE YOU'RE WITH
TTITLE12=ST JAMES INFIRMARY
TTITLE13=EARLY IN THE MORNING
TTITLE14=WHAT KIND OF MAN ARE YOU ?
EXTD=
EXTT0=
EXTT1=
EXTT2=
EXTT3=
EXTT4=
EXTT5=
EXTT6=
EXTT7=
EXTT8=
EXTT9=
EXTT10=
EXTT11=
EXTT12=
EXTT13=
EXTT14=
PLAYORDER=
